<svg width="48" height="48" viewBox="0 0 48 48" fill="none" xmlns="http://www.w3.org/2000/svg">
<path fill-rule="evenodd" clip-rule="evenodd" d="M8.47826 20.7826C8.50708 12.3014 15.4058 5.44945 23.887 5.47817C32.3681 5.50708 39.2201 12.4058 39.1914 20.887V21.0609C39.087 26.5739 36.0087 31.6696 32.2348 35.6522C30.0765 37.8934 27.6663 39.8776 25.0522 41.5652C24.3532 42.1698 23.3164 42.1698 22.6174 41.5652C18.7204 39.0287 15.3001 35.8263 12.513 32.1043C10.029 28.8588 8.61859 24.9195 8.47826 20.8348V20.7826Z" stroke="#FF5722" stroke-width="1.5" stroke-linecap="round" stroke-linejoin="round"/>
<path opacity="0.4" d="M23.8348 26C26.553 26 28.7565 23.7965 28.7565 21.0783C28.7565 18.3601 26.553 16.1565 23.8348 16.1565C21.1166 16.1565 18.913 18.3601 18.913 21.0783C18.913 23.7965 21.1166 26 23.8348 26Z" stroke="#FF5722" stroke-width="1.5" stroke-linecap="round" stroke-linejoin="round"/>
</svg>
