<svg width="42" height="42" viewBox="0 0 42 42" fill="none" xmlns="http://www.w3.org/2000/svg">
<path d="M42 4.97657C40.4245 5.83226 38.7576 6.39601 37.0519 6.65C38.8445 5.33792 40.1925 3.25344 40.8432 0.787516C39.1485 2.02628 37.2974 2.89546 35.3693 3.35782C34.5573 2.29418 33.5809 1.44803 32.4992 0.870799C31.4175 0.293564 30.2532 -0.00269863 29.0771 1.8522e-05C24.3154 1.8522e-05 20.4619 4.74688 20.4619 10.5984C20.4585 11.4124 20.5331 12.2239 20.6841 13.0156C17.2696 12.8155 13.9261 11.7267 10.8675 9.81886C7.80888 7.91101 5.10255 5.22611 2.92162 1.93595C2.1565 3.54826 1.75187 5.38786 1.75 7.26249C1.75 10.9375 3.28387 14.1859 5.6 16.089C4.22776 16.0483 2.88364 15.5943 1.68175 14.7656V14.8968C1.68175 20.0375 4.65675 24.314 8.59425 25.2874C7.85381 25.5342 7.0908 25.6592 6.3245 25.6593C5.78076 25.6605 5.23825 25.5946 4.70487 25.4624C5.7995 29.6734 8.98537 32.7359 12.7593 32.8234C9.69271 35.7775 5.92779 37.3741 2.05625 37.3624C1.36904 37.3611 0.68247 37.31 0 37.2093C3.93853 40.3529 8.51676 42.0158 13.1897 41.9999C29.0588 41.9999 37.7282 25.8453 37.7282 11.8344C37.7282 11.375 37.7186 10.9156 37.7011 10.4672C39.3838 8.97099 40.8396 7.11168 42 4.97657Z" fill="#FF5722"/>
</svg>
