<svg width="0" height="0" class="hidden">
  <symbol xmlns="http://www.w3.org/2000/svg" viewBox="0 0 102 22" id="tapsi-logo-white">
    <g fill="#FFF" fill-rule="evenodd">
      <path d="M102 5.946h-3.222v4.28H91.8v-4.28h-3.221v4.28h-5.637a1.878 1.878 0 0 1-1.879-1.872V5.946h-3.221v2.408a1.878 1.878 0 0 1-1.879 1.873 1.878 1.878 0 0 1-1.879-1.873V5.946h-3.221v2.408a1.878 1.878 0 0 1-1.879 1.873h-1.879V5.946h-3.22v4.28h-17.18v3.212h3.758v.535c0 2.656-2.167 4.816-4.831 4.816-2.664 0-4.832-2.16-4.832-4.816v-3.746H37.58v3.746c0 4.426 3.613 8.027 8.053 8.027 4.44 0 8.052-3.6 8.052-8.027v-.535H68.985a5.09 5.09 0 0 0 3.489-1.381 5.09 5.09 0 0 0 3.49 1.38 5.09 5.09 0 0 0 3.489-1.38 5.089 5.089 0 0 0 3.489 1.38H102V5.947z"></path>
      <path d="M84.702 19.297h3.854V22h3.304v-5.946h-7.158zM102 0h-6.561v2.973H102zM26.842 11.297H10.737V5.946h16.105zM26.842 22H0v-5.351h26.842z"></path>
    </g>
  </symbol>
  <symbol fill="none" xmlns="http://www.w3.org/2000/svg" viewBox="0 0 48 48" id="Calling">
    <path opacity="0.4" d="M28.706 5C36.108 5.822 41.956 11.662 42.786 19.064" stroke="#FF5722" stroke-width="1.5" stroke-linecap="round" stroke-linejoin="round"></path>
    <path opacity="0.4" d="M28.706 12.086C32.248 12.774 35.016 15.544 35.706 19.086" stroke="#FF5722" stroke-width="1.5" stroke-linecap="round" stroke-linejoin="round"></path>
    <path fill-rule="evenodd" clip-rule="evenodd" d="M22.063 24.9448C30.041 32.9207 31.8509 23.6934 36.9305 28.7696C41.8276 33.6655 44.6444 34.6464 38.4376 40.8494C37.6605 41.474 32.7225 48.9885 15.3689 31.6393C-1.98681 14.288 5.52313 9.34489 6.14789 8.5679C12.3675 2.34769 13.3336 5.17877 18.2308 10.0747C23.3083 15.153 14.0851 16.9688 22.063 24.9448Z" stroke="#FF5722" stroke-width="1.5" stroke-linecap="round" stroke-linejoin="round"></path>
  </symbol>
  <symbol fill="none" xmlns="http://www.w3.org/2000/svg" viewBox="0 0 42 42" id="linkedin">
    <path d="M38.6409 0H3.58874C1.67343 0 0 1.37812 0 3.27094V38.4009C0 40.3041 1.67343 42 3.58874 42H38.6306C40.5562 42 41.9999 40.2928 41.9999 38.4009V3.27094C42.0112 1.37812 40.5562 0 38.6409 0ZM13.019 35.0091H7.00218V16.3013H13.019V35.0091ZM10.2187 13.4569H10.1756C8.24999 13.4569 7.00311 12.0234 7.00311 10.2291C7.00311 8.40188 8.2828 7.00219 10.2515 7.00219C12.2203 7.00219 13.425 8.39156 13.4681 10.2291C13.4672 12.0234 12.2203 13.4569 10.2187 13.4569ZM35.009 35.0091H28.9921V24.78C28.9921 22.3294 28.1165 20.655 25.9396 20.655C24.2765 20.655 23.2922 21.78 22.8543 22.8759C22.6903 23.2697 22.6462 23.8059 22.6462 24.3534V35.0091H16.6293V16.3013H22.6462V18.9047C23.5218 17.6578 24.8896 15.8634 28.0725 15.8634C32.0221 15.8634 35.0099 18.4669 35.0099 24.0797L35.009 35.0091Z" fill="#FF5722"></path>
  </symbol>
  <symbol fill="none" xmlns="http://www.w3.org/2000/svg" viewBox="0 0 48 48" id="Location">
    <path fill-rule="evenodd" clip-rule="evenodd" d="M8.47826 20.7826C8.50708 12.3014 15.4058 5.44945 23.887 5.47817C32.3681 5.50708 39.2201 12.4058 39.1914 20.887V21.0609C39.087 26.5739 36.0087 31.6696 32.2348 35.6522C30.0765 37.8934 27.6663 39.8776 25.0522 41.5652C24.3532 42.1698 23.3164 42.1698 22.6174 41.5652C18.7204 39.0287 15.3001 35.8263 12.513 32.1043C10.029 28.8588 8.61859 24.9195 8.47826 20.8348V20.7826Z" stroke="#FF5722" stroke-width="1.5" stroke-linecap="round" stroke-linejoin="round"></path>
    <path opacity="0.4" d="M23.8348 26C26.553 26 28.7565 23.7965 28.7565 21.0783C28.7565 18.3601 26.553 16.1565 23.8348 16.1565C21.1166 16.1565 18.913 18.3601 18.913 21.0783C18.913 23.7965 21.1166 26 23.8348 26Z" stroke="#FF5722" stroke-width="1.5" stroke-linecap="round" stroke-linejoin="round"></path>
  </symbol>
  <symbol fill="none" xmlns="http://www.w3.org/2000/svg" viewBox="0 0 48 48" id="Message">
    <path opacity="0.4" d="M34.5355 17.1223L26.0046 23.9908C24.3902 25.2565 22.127 25.2565 20.5126 23.9908L11.9085 17.1223" stroke="#FF5722" stroke-width="1.5" stroke-linecap="round" stroke-linejoin="round"></path>
    <path fill-rule="evenodd" clip-rule="evenodd" d="M13.7757 6H32.6316C35.3504 6.03049 37.9381 7.17986 39.792 9.1804C41.646 11.181 42.6043 13.8581 42.4439 16.5882V29.644C42.6043 32.3742 41.646 35.0513 39.792 37.0518C37.9381 39.0524 35.3504 40.2017 32.6316 40.2322H13.7757C7.93593 40.2322 4 35.4813 4 29.644V16.5882C4 10.7509 7.93593 6 13.7757 6Z" stroke="#FF5722" stroke-width="1.5" stroke-linecap="round" stroke-linejoin="round"></path>
  </symbol>
  <symbol fill="none" xmlns="http://www.w3.org/2000/svg" viewBox="0 0 42 42" id="telegram">
    <path d="M21 0C9.408 0 0 9.408 0 21C0 32.592 9.408 42 21 42C32.592 42 42 32.592 42 21C42 9.408 32.592 0 21 0ZM30.744 14.28C30.429 17.598 29.064 25.662 28.371 29.379C28.077 30.954 27.489 31.479 26.943 31.542C25.725 31.647 24.801 30.744 23.625 29.967C21.777 28.749 20.727 27.993 18.942 26.817C16.863 25.452 18.207 24.696 19.404 23.478C19.719 23.163 25.095 18.27 25.2 17.829C25.2146 17.7622 25.2126 17.6929 25.1943 17.627C25.176 17.5611 25.1419 17.5007 25.095 17.451C24.969 17.346 24.801 17.388 24.654 17.409C24.465 17.451 21.525 19.404 15.792 23.268C14.952 23.835 14.196 24.129 13.524 24.108C12.768 24.087 11.34 23.688 10.269 23.331C8.946 22.911 7.917 22.68 8.001 21.945C8.043 21.567 8.568 21.189 9.555 20.79C15.687 18.123 19.761 16.359 21.798 15.519C27.636 13.083 28.833 12.663 29.631 12.663C29.799 12.663 30.198 12.705 30.45 12.915C30.66 13.083 30.723 13.314 30.744 13.482C30.723 13.608 30.765 13.986 30.744 14.28V14.28Z" fill="#FF5722"></path>
  </symbol>
  <symbol fill="none" xmlns="http://www.w3.org/2000/svg" viewBox="0 0 42 42" id="twitter">
    <path d="M42 4.97657C40.4245 5.83226 38.7576 6.39601 37.0519 6.65C38.8445 5.33792 40.1925 3.25344 40.8432 0.787516C39.1485 2.02628 37.2974 2.89546 35.3693 3.35782C34.5573 2.29418 33.5809 1.44803 32.4992 0.870799C31.4175 0.293564 30.2532 -0.00269863 29.0771 1.8522e-05C24.3154 1.8522e-05 20.4619 4.74688 20.4619 10.5984C20.4585 11.4124 20.5331 12.2239 20.6841 13.0156C17.2696 12.8155 13.9261 11.7267 10.8675 9.81886C7.80888 7.91101 5.10255 5.22611 2.92162 1.93595C2.1565 3.54826 1.75187 5.38786 1.75 7.26249C1.75 10.9375 3.28387 14.1859 5.6 16.089C4.22776 16.0483 2.88364 15.5943 1.68175 14.7656V14.8968C1.68175 20.0375 4.65675 24.314 8.59425 25.2874C7.85381 25.5342 7.0908 25.6592 6.3245 25.6593C5.78076 25.6605 5.23825 25.5946 4.70487 25.4624C5.7995 29.6734 8.98537 32.7359 12.7593 32.8234C9.69271 35.7775 5.92779 37.3741 2.05625 37.3624C1.36904 37.3611 0.68247 37.31 0 37.2093C3.93853 40.3529 8.51676 42.0158 13.1897 41.9999C29.0588 41.9999 37.7282 25.8453 37.7282 11.8344C37.7282 11.375 37.7186 10.9156 37.7011 10.4672C39.3838 8.97099 40.8396 7.11168 42 4.97657Z" fill="#FF5722"></path>
  </symbol>
</svg>